<svg width="60" height="60" viewBox="0 0 60 60" fill="none" xmlns="http://www.w3.org/2000/svg">
<path d="M30 10C18.95 10 10 18.95 10 30C10 41.05 18.95 50 30 50C41.05 50 50 41.05 50 30V27.5H45C43.625 27.5 42.5 26.375 42.5 25V22.5H37.5C36.125 22.5 35 21.375 35 20V17.5H32.5C31.125 17.5 30 16.375 30 15V10Z" fill="black" fill-opacity="0.3" stroke="black" stroke-width="2" stroke-linecap="round" stroke-linejoin="round"/>
<path d="M23.75 22.5C25.8211 22.5 27.5 20.8211 27.5 18.75C27.5 16.6789 25.8211 15 23.75 15C21.6789 15 20 16.6789 20 18.75C20 20.8211 21.6789 22.5 23.75 22.5Z" fill="black"/>
<path d="M27.5 47.5C29.5711 47.5 31.25 45.8211 31.25 43.75C31.25 41.6789 29.5711 40 27.5 40C25.4289 40 23.75 41.6789 23.75 43.75C23.75 45.8211 25.4289 47.5 27.5 47.5Z" fill="black"/>
<path d="M16.25 32.5C18.3211 32.5 20 30.8211 20 28.75C20 26.6789 18.3211 25 16.25 25C14.1789 25 12.5 26.6789 12.5 28.75C12.5 30.8211 14.1789 32.5 16.25 32.5Z" fill="black"/>
<path d="M41.25 40C43.3211 40 45 38.3211 45 36.25C45 34.1789 43.3211 32.5 41.25 32.5C39.1789 32.5 37.5 34.1789 37.5 36.25C37.5 38.3211 39.1789 40 41.25 40Z" fill="black"/>
<path d="M28.75 35C30.8211 35 32.5 33.3211 32.5 31.25C32.5 29.1789 30.8211 27.5 28.75 27.5C26.6789 27.5 25 29.1789 25 31.25C25 33.3211 26.6789 35 28.75 35Z" fill="black"/>
</svg>
